<svg xmlns="http://www.w3.org/2000/svg" width="159" height="46" viewBox="0 0 159 46" fill="none"><path d="M22.6608 13.3039C20.4979 13.0717 18.0614 12.9531 15.4175 12.9531C12.3303 12.9531 9.58917 13.6301 7.26972 14.9645C4.94038 16.3054 3.12336 18.2114 1.87138 20.628C0.629284 23.0249 0 25.8419 0 29.0015C0 32.1611 0.629284 35.0587 1.86808 37.4968C3.11842 39.9563 4.92226 41.8919 7.23018 43.2559C9.53152 44.615 12.2002 45.3035 15.1654 45.3035C17.2015 45.3035 19.1372 45.007 20.9179 44.4206C22.3445 43.9511 23.8255 43.2575 25.3345 42.3548V44.8901H31.0211V14.6498L30.4494 14.5395C27.4266 13.9514 24.804 13.5362 22.6575 13.3039H22.6608ZM25.3361 18.7945V36.9828C23.5866 38.0964 21.9623 38.9102 20.5028 39.4028C18.9708 39.92 17.3432 40.1836 15.6679 40.1836C12.6203 40.1836 10.2531 39.2001 8.4278 37.1789C6.60913 35.1642 5.68662 32.4559 5.68662 29.1316C5.68662 25.8073 6.58936 23.043 8.36849 21.0497C10.1262 19.0779 12.6878 18.0779 15.9841 18.0779C18.9312 18.0779 22.076 18.3201 25.3378 18.7962L25.3361 18.7945Z" fill="#231F20"></path><path d="M41.0683 14.4736L40.4868 14.5773V44.8868H46.1734V19.1306C49.5406 18.7632 53.2965 18.5771 57.3506 18.5771H58.0557V12.9514H57.3506C52.1763 12.9514 46.6989 13.4621 41.0683 14.4719V14.4736Z" fill="#231F20"></path><path d="M70.6939 13.6449H65.0073V44.8884H70.6939V13.6449Z" fill="#231F20"></path><path d="M67.8506 0C66.7847 0 65.8688 0.362415 65.1292 1.07901C64.3813 1.80219 64.0007 2.73459 64.0007 3.84984C64.0007 4.96509 64.3796 5.83653 65.1275 6.55807C65.8672 7.27466 66.7831 7.63707 67.8506 7.63707C68.918 7.63707 69.8323 7.27301 70.572 6.55807C71.3199 5.83488 71.6988 4.9239 71.6988 3.84984C71.6988 2.77577 71.3199 1.80219 70.572 1.07736C69.829 0.362415 68.9131 0 67.8506 0Z" fill="#231F20"></path><path d="M98.5587 28.0196C96.9641 27.42 94.7402 26.8121 91.9628 26.2191C89.9843 25.7628 88.4753 25.3542 87.4771 25.0034C86.5628 24.6838 85.8627 24.2752 85.3965 23.7876C84.9797 23.3511 84.7771 22.7564 84.7771 21.9673C84.7771 20.5967 85.2647 19.5852 86.2679 18.8736C88.0553 17.6101 91.4422 17.4141 95.8571 18.2311C97.6395 18.5623 99.4384 19.0235 101.204 19.6017L101.872 19.8192L103.443 15.0682L102.794 14.8327C101.129 14.2297 99.2523 13.7306 97.2161 13.3468C95.1734 12.9596 93.2049 12.7636 91.3648 12.7636C87.622 12.7636 84.6354 13.579 82.4889 15.1852C80.2765 16.8391 79.1547 19.1849 79.1547 22.1567C79.1547 24.7035 80.0195 26.6639 81.7245 27.9801C83.3538 29.2403 85.8198 30.2155 89.2727 30.9651C91.8804 31.5071 93.7996 31.9518 94.9774 32.2846C96.0729 32.5943 97.002 33.0605 97.7383 33.67C98.389 34.2103 98.707 34.9418 98.707 35.9088C98.707 37.2645 98.1255 38.2908 96.9312 39.0453C94.6183 40.5081 90.7948 40.6333 86.0867 39.5263C83.9798 39.0305 81.8975 38.3205 79.8976 37.4161L79.1498 37.0784L77.7561 42.0846L78.3244 42.3301C80.4083 43.2312 82.6487 43.9577 84.9846 44.493C87.3304 45.0301 89.5395 45.3019 91.5542 45.3019C95.292 45.3019 98.338 44.4683 100.611 42.8243C102.955 41.1275 104.143 38.673 104.143 35.5299C104.143 33.5465 103.619 31.9304 102.588 30.7246C101.593 29.5615 100.237 28.6522 98.5604 28.0196H98.5587Z" fill="#231F20"></path><path d="M137.624 19.5935C136.388 17.3696 134.642 15.6448 132.435 14.4653C130.244 13.2957 127.7 12.7026 124.875 12.7026C121.832 12.7026 119.083 13.383 116.703 14.7256C114.311 16.0747 112.421 18.0021 111.085 20.4534C109.754 22.8914 109.08 25.7463 109.08 28.9388C109.08 32.1314 109.743 34.9269 111.051 37.3864C112.367 39.8623 114.289 41.8243 116.768 43.2163C119.231 44.6001 122.17 45.3019 125.506 45.3019C127.554 45.3019 129.463 45.1272 131.178 44.7813C132.883 44.4354 134.911 43.9197 137.209 43.246L137.828 43.0648L136.869 38.1475L136.151 38.3254C133.957 38.8674 132.048 39.2792 130.479 39.551C128.936 39.8179 127.305 39.9529 125.631 39.9529C122.64 39.9529 120.187 39.098 118.34 37.4111C116.665 35.8824 115.605 33.8512 115.187 31.3621H139.199L139.283 30.746C139.411 29.7905 139.477 28.6275 139.477 27.2915C139.477 24.3938 138.854 21.8042 137.625 19.5935H137.624ZM134.138 26.5172H115.034C115.375 23.9359 116.363 21.8338 117.978 20.2623C119.74 18.5458 122.081 17.6743 124.938 17.6743C127.794 17.6743 129.873 18.5079 131.575 20.2227C133.117 21.7762 133.977 23.8914 134.138 26.5189V26.5172Z" fill="#231F20"></path><path d="M159 16.5C159 21.356 155.15 25 150.008 25C144.867 25 141 21.364 141 16.5C141 11.636 144.875 8 150.008 8C155.142 8 159 11.636 159 16.5ZM142.159 16.5C142.159 20.7139 145.57 23.9164 150.008 23.9164C154.446 23.9164 157.833 20.7059 157.833 16.5C157.833 12.2941 154.421 9.07555 150.008 9.07555C145.595 9.07555 142.159 12.2861 142.159 16.5ZM153.941 14.8546C153.941 16.1468 153.179 17.1261 151.937 17.6076L154.529 21.0109H152.5L150.306 18.017C150.182 18.0411 150.058 18.0411 149.959 18.0411H148.203V21.0109H146.547V11.8206C147.284 11.8206 148.841 11.7724 150.058 11.7724C152.351 11.7724 153.933 12.848 153.933 14.8626L153.941 14.8546ZM148.212 13.2252V16.6284H150.232C151.416 16.6284 152.285 15.9301 152.285 14.8546C152.285 13.7068 151.424 13.1771 150.141 13.1771C149.478 13.1771 148.882 13.2011 148.212 13.2252Z" fill="#231F20"></path></svg>